<!--?xml version="1.0" standalone="no"?-->              <svg id="sw-js-blob-svg" viewBox="0 0 100 100" xmlns="http://www.w3.org/2000/svg">                    <defs>                         <linearGradient id="sw-gradient" x1="0" x2="1" y1="1" y2="0">                            <stop id="stop1" stop-color="rgba(85.296, 55, 248, 1)" offset="0%" data-darkreader-inline-stopcolor="" style="--darkreader-inline-stopcolor: var(--darkreader-background-f87537, #a93a06);"></stop>                            <stop id="stop2" stop-color="rgba(31, 198.454, 251, 1)" offset="100%" data-darkreader-inline-stopcolor="" style="--darkreader-inline-stopcolor: var(--darkreader-background-fba81f, #b97403);"></stop>                        </linearGradient>                    </defs>                <path fill="url(#sw-gradient)" d="M24.4,-28.2C31.3,-23.3,36.3,-15.3,37.2,-7C38.1,1.3,35,9.8,30.8,18.7C26.7,27.5,21.7,36.7,14,40.4C6.2,44.1,-4.3,42.4,-11.4,37.2C-18.5,32.1,-22.2,23.5,-27.2,15.4C-32.1,7.4,-38.2,-0.2,-37.3,-6.8C-36.4,-13.4,-28.5,-18.9,-21.1,-23.7C-13.7,-28.5,-6.8,-32.5,1,-33.6C8.8,-34.8,17.5,-33.1,24.4,-28.2Z" width="100%" height="100%" transform="translate(50 50)" stroke-width="0" style="transition: 0.3s;"></path>              </svg>
